# xmcd
#
# Track frame offsets:
#	150
#	34280
#	69702
#
# Disc length: 1238 seconds
#
# Revision: 1
# Processed by: cddbd v1.5.1PL2 Copyright (c) Steve Scherf et al.
# Submitted via: EasyCDDAExtractor 9.0.0.1
#
DISCID=2604d403
DTITLE=Black Sabbath - Brendan Byrne Arena East Rutherford 22-08-82 Disc 2
DYEAR=1982
DGENRE=Hard Rock
TTITLE0=The Sign Of The Southern Cross - Heaven And Hell (Reprise)
TTITLE1=Paranoid
TTITLE2=Children Of The Grave
EXTD=
EXTT0=
EXTT1=
EXTT2=
PLAYORDER=
